<?xml version="1.0" encoding="UTF-8"?>
<svg version="1.1" xmlns="http://www.w3.org/2000/svg" width="512" height="512">
<path d="M0 0 C4.17503076 0.99287295 5.58098787 2.48981273 8.28515625 5.78125 C8.96835937 6.59980469 9.6515625 7.41835937 10.35546875 8.26171875 C35.70874474 41.66441886 52.01607649 81.36939762 58.28515625 122.78125 C58.46248291 123.90007568 58.63980957 125.01890137 58.82250977 126.17163086 C60.50391966 137.89360947 60.64249966 149.51623976 60.59765625 161.34375 C60.5955011 162.36415375 60.59334595 163.3845575 60.59112549 164.43588257 C60.54148977 179.06335524 60.29435337 193.41388838 57.28515625 207.78125 C56.98714111 209.24353027 56.98714111 209.24353027 56.68310547 210.73535156 C46.56248431 259.1172274 24.64596855 303.10553269 -9.71484375 338.78125 C-10.34696777 339.44060547 -10.9790918 340.09996094 -11.63037109 340.77929688 C-20.77481854 350.26755305 -30.07218384 359.0074544 -40.71484375 366.78125 C-41.86589392 367.63931152 -43.01693552 368.49738451 -44.16796875 369.35546875 C-52.35760356 375.39302396 -60.86022651 380.77582302 -69.71484375 385.78125 C-70.42205566 386.1834375 -71.12926758 386.585625 -71.85791016 387 C-94.99330211 400.0254241 -120.16446784 408.77426461 -146.15234375 414.09375 C-146.87123779 414.24110596 -147.59013184 414.38846191 -148.33081055 414.5402832 C-163.8093029 417.48224807 -179.12087062 418.15362337 -194.83984375 418.09375 C-195.83340881 418.09192719 -196.82697388 418.09010437 -197.85064697 418.08822632 C-212.34453575 418.04344978 -226.45620472 417.58235213 -240.71484375 414.78125 C-241.61041992 414.62027832 -242.50599609 414.45930664 -243.42871094 414.29345703 C-283.76479502 406.9959486 -324.3252213 389.52708935 -355.71484375 362.78125 C-357.35990707 359.49112337 -357.21322516 357.44215464 -356.71484375 353.78125 C-354.58851284 350.58042729 -351.96676417 348.01028282 -349.21484375 345.34375 C-348.51875 344.61220703 -347.82265625 343.88066406 -347.10546875 343.12695312 C-341.24609375 337.31640625 -341.24609375 337.31640625 -336.67578125 336.97265625 C-331.83703478 337.4870252 -328.55446293 340.21783978 -324.83984375 343.15625 C-316.21124323 349.5929307 -307.27374979 354.85282172 -297.71484375 359.78125 C-296.97041016 360.16909668 -296.22597656 360.55694336 -295.45898438 360.95654297 C-244.65989948 387.13541451 -183.80099217 391.62422283 -129.37939453 374.64941406 C-115.60995443 370.16305443 -102.45537063 364.65730689 -89.71484375 357.78125 C-88.55984375 357.16765625 -87.40484375 356.5540625 -86.21484375 355.921875 C-59.12429472 341.02207304 -34.93425428 319.73934662 -16.71484375 294.78125 C-16.08578125 293.935625 -15.45671875 293.09 -14.80859375 292.21875 C-6.11006943 280.19897094 0.96788284 267.17870251 7.28515625 253.78125 C7.80851562 252.67652344 8.331875 251.57179688 8.87109375 250.43359375 C32.95868072 196.96934649 32.37881278 135.39849706 12.28125 80.87890625 C5.29938406 62.66579987 -3.91446839 44.09054384 -16.609375 29.171875 C-19.28540447 25.73856375 -20.86836893 23.20930712 -20.43017578 18.78125 C-18.86031925 14.39208115 -15.46156964 11.43011693 -12.15234375 8.28125 C-11.09563477 7.19070312 -11.09563477 7.19070312 -10.01757812 6.078125 C-6.68747105 2.81247161 -4.63291065 0.97432401 0 0 Z " fill="#F32154" transform="translate(451.71484375,94.21875)"/>
<path d="M0 0 C1.01201477 0.00054382 2.02402954 0.00108765 3.06671143 0.00164795 C19.59530572 0.04238044 35.52913999 0.94575778 51.75 4.375 C52.79188477 4.59462402 53.83376953 4.81424805 54.90722656 5.04052734 C92.46265654 13.23222579 131.73754924 29.52754387 160.75 55.375 C162.39506332 58.66512663 162.24838141 60.71409536 161.75 64.375 C159.62366909 67.57582271 157.00192042 70.14596718 154.25 72.8125 C153.55390625 73.54404297 152.8578125 74.27558594 152.140625 75.02929688 C146.28125 80.83984375 146.28125 80.83984375 141.63671875 81.14453125 C137.13713494 80.25365888 134.48128119 78.5046377 131.0625 75.625 C86.23035902 40.52898701 26.35105488 28.93494176 -29.25 35.375 C-68.59603038 40.59271714 -106.36495713 56.36651035 -137.25 81.375 C-138.24386719 82.16648437 -139.23773438 82.95796875 -140.26171875 83.7734375 C-186.2447994 121.08383218 -213.88571531 174.6997896 -221.03858948 233.20542908 C-221.40285279 236.94363039 -221.45249484 240.67599067 -221.48828125 244.4296875 C-221.50297203 245.70578384 -221.50297203 245.70578384 -221.51795959 247.00765991 C-221.69265716 266.13481471 -221.50823593 284.62774364 -217.25 303.375 C-217.03569336 304.32133301 -216.82138672 305.26766602 -216.60058594 306.24267578 C-211.98823685 325.87033597 -204.83360106 344.64769853 -195.25 362.375 C-194.93063477 362.9736084 -194.61126953 363.5722168 -194.28222656 364.18896484 C-189.87259282 372.40162788 -184.86394384 380.00563781 -179.3515625 387.51171875 C-176.41328435 391.5149862 -174.57080388 394.03825729 -174.71044922 399.1640625 C-175.8348747 403.77166301 -179.47905422 406.70308684 -182.8125 409.875 C-183.51697266 410.60203125 -184.22144531 411.3290625 -184.94726562 412.078125 C-188.2773727 415.34377839 -190.3319331 417.18192599 -194.96484375 418.15625 C-199.13987451 417.16337705 -200.54583162 415.66643727 -203.25 412.375 C-204.27480469 411.14716797 -204.27480469 411.14716797 -205.3203125 409.89453125 C-211.97935855 401.12130138 -217.73929206 391.90335721 -223.25 382.375 C-223.67958008 381.6339502 -224.10916016 380.89290039 -224.55175781 380.12939453 C-240.62997289 352.00180119 -250.06457742 320.39873527 -254.25 288.375 C-254.37882568 287.39794601 -254.37882568 287.39794601 -254.51025391 286.40115356 C-255.21337679 280.66961525 -255.42448315 275.01338925 -255.453125 269.2421875 C-255.46371445 267.82266533 -255.46371445 267.82266533 -255.47451782 266.37446594 C-255.70241099 226.85847888 -255.70241099 226.85847888 -252.25 210.375 C-252.05132324 209.40014648 -251.85264648 208.42529297 -251.64794922 207.42089844 C-241.28913481 157.90033399 -218.3380545 113.77434897 -183.25 77.375 C-182.71584473 76.81893066 -182.18168945 76.26286133 -181.63134766 75.68994141 C-174.57347031 68.38037155 -167.33584352 61.55292156 -159.25 55.375 C-158.58258789 54.85824707 -157.91517578 54.34149414 -157.22753906 53.80908203 C-141.01556322 41.30952741 -123.80469845 31.00787354 -105.25 22.375 C-104.55567871 22.04935059 -103.86135742 21.72370117 -103.14599609 21.38818359 C-82.64489661 11.90729182 -60.57693133 5.68050474 -38.25 2.375 C-37.13189941 2.19984863 -36.01379883 2.02469727 -34.86181641 1.84423828 C-23.24356028 0.18575552 -11.72359297 -0.02374605 0 0 Z " fill="#FF4154" transform="translate(255.25,-0.375)"/>
<path d="M0 0 C0.66 0 1.32 0 2 0 C2.2883962 10.98285973 1.57119906 21.41159067 -0.1875 32.25 C-0.30114899 32.96810852 -0.41479797 33.68621704 -0.53189087 34.42608643 C-9.63823811 91.77186981 -38.50360293 149.59753125 -84 187 C-84.91523438 187.80308594 -85.83046875 188.60617187 -86.7734375 189.43359375 C-126.55706599 224.26001584 -175.77959006 244.01552398 -228 250 C-229.08474609 250.13196777 -229.08474609 250.13196777 -230.19140625 250.26660156 C-282.79453359 256.33808402 -340.23352421 228.80579722 -380.9140625 197.77734375 C-383.63162523 195.46181746 -383.92377364 194.44446695 -384.53125 190.90234375 C-383.74571857 185.13215329 -380.57350029 182.50960622 -376.5 178.5625 C-375.80390625 177.83095703 -375.1078125 177.09941406 -374.390625 176.34570312 C-368.53125 170.53515625 -368.53125 170.53515625 -363.9609375 170.19140625 C-359.12219103 170.7057752 -355.83961918 173.43658978 -352.125 176.375 C-343.49639948 182.8116807 -334.55890604 188.07157172 -325 193 C-324.25556641 193.38784668 -323.51113281 193.77569336 -322.74414062 194.17529297 C-271.94505573 220.35416451 -211.08614842 224.84297283 -156.66455078 207.86816406 C-142.89511068 203.38180443 -129.74052688 197.87605689 -117 191 C-115.845 190.38640625 -114.69 189.7728125 -113.5 189.140625 C-86.40945097 174.24082304 -62.21941053 152.95809662 -44 128 C-43.3709375 127.154375 -42.741875 126.30875 -42.09375 125.4375 C-33.39522568 113.41772094 -26.31727341 100.39745251 -20 87 C-19.47664063 85.89527344 -18.95328125 84.79054688 -18.4140625 83.65234375 C-6.4519026 57.10141211 -1.60106625 28.90918226 0 0 Z " fill="#FE4054" transform="translate(479,261)"/>
<path d="M0 0 C4.98009117 3.17666945 7.75140695 7.66428952 10.9375 12.5 C12.09268217 14.22076942 13.24896823 15.94079819 14.40625 17.66015625 C14.99921875 18.54461426 15.5921875 19.42907227 16.203125 20.34033203 C19.06401903 24.57492165 21.99882173 28.75667869 24.9375 32.9375 C25.5145166 33.76000244 26.0915332 34.58250488 26.68603516 35.42993164 C27.86095471 37.10459147 29.03624905 38.77898842 30.21191406 40.453125 C33.24887545 44.77884608 36.28074194 49.10813129 39.3125 53.4375 C39.85060303 54.20505615 40.38870605 54.9726123 40.94311523 55.76342773 C44.21539349 60.4350584 47.47029319 65.1184359 50.71557617 69.80883789 C51.12927208 70.40658272 51.54296799 71.00432755 51.96920013 71.62018585 C52.97955465 73.08006308 53.98978967 74.540023 55 76 C55.00364563 75.10686096 55.00729126 74.21372192 55.01104736 73.29351807 C55.04891241 64.87690669 55.10574805 56.46068339 55.18390274 48.04434586 C55.22341389 43.71737398 55.25558434 39.39060671 55.27099609 35.06347656 C55.28613899 30.88758467 55.32054162 26.71225516 55.36830902 22.53661346 C55.38314741 20.94346759 55.39104243 19.35024143 55.39188385 17.75702667 C55.39424803 15.52523327 55.42127938 13.29500104 55.45410156 11.06347656 C55.46742523 9.15819183 55.46742523 9.15819183 55.48101807 7.2144165 C56.08753086 3.45786045 57.0130646 2.27701836 60 0 C62 -0.56640625 62 -0.56640625 64 -0.5625 C64.99 -0.59537109 64.99 -0.59537109 66 -0.62890625 C69.26691054 0.39838398 70.20770919 2.11066643 72 5 C72.59419645 8.28257818 72.55685798 11.52268853 72.53344727 14.8515625 C72.54637062 16.3329068 72.54637062 16.3329068 72.55955505 17.84417725 C72.58223593 21.10471899 72.57547239 24.3644028 72.56640625 27.625 C72.57164062 29.89274349 72.57791641 32.16048479 72.58518982 34.42822266 C72.59559779 39.17946625 72.59102624 43.93041041 72.57641602 48.68164062 C72.55922205 54.77176253 72.58272985 60.86094155 72.61790562 66.95095825 C72.63985942 71.63328306 72.63844305 76.31538152 72.6301403 80.9977417 C72.6293198 83.24323562 72.63620207 85.488746 72.65091133 87.73419189 C72.66832059 90.87286468 72.65384401 94.00983347 72.63110352 97.1484375 C72.64864182 98.54035309 72.64864182 98.54035309 72.66653442 99.96038818 C72.60040262 104.44387685 72.45868209 106.39625087 69.67149353 110.06494141 C67 112 67 112 63.625 112.8125 C54.88681754 110.85394186 49.84942168 99.58454078 45.078125 92.53125 C41.83174109 87.73516924 38.51463016 82.99029343 35.1875 78.25 C34.00128351 76.55860677 32.81508578 74.86720039 31.62890625 73.17578125 C31.03352051 72.32709473 30.43813477 71.4784082 29.82470703 70.60400391 C27.97252205 67.96078675 26.1243628 65.31479788 24.27734375 62.66796875 C23.66544189 61.79172852 23.05354004 60.91548828 22.4230957 60.01269531 C21.27111216 58.36284842 20.11984154 56.71250337 18.96948242 55.06152344 C15.95237302 50.74369251 12.89211835 46.46101496 9.79052734 42.20336914 C9.07826996 41.22525772 8.36601257 40.2471463 7.63217163 39.23939514 C7.09355499 38.50039474 6.55493835 37.76139435 6 37 C5.99857498 37.86586227 5.99714996 38.73172455 5.99568176 39.62382507 C5.9778408 47.7899968 5.93619511 55.95562722 5.86790943 64.12153912 C5.83364082 68.31962392 5.80852973 72.51734488 5.80444336 76.71557617 C5.80016001 80.76836752 5.77169554 84.82033814 5.72656822 88.87287331 C5.71359417 90.41774525 5.70928526 91.96271543 5.71384621 93.50763512 C5.7187535 95.67485162 5.69266161 97.83967041 5.65942383 100.0065918 C5.65276199 101.23903122 5.64610016 102.47147064 5.63923645 103.74125671 C4.8208545 107.91326017 3.31053081 109.40970759 0 112 C-3.80619105 112.60097753 -5.91529507 112.70279221 -9.18249512 110.5859375 C-11.98280022 106.60167641 -11.5580676 102.82212806 -11.51757812 98.0625 C-11.5245874 97.05396973 -11.53159668 96.04543945 -11.53881836 95.00634766 C-11.55643218 91.67061886 -11.5447631 88.33573752 -11.53125 85 C-11.53394393 82.68359209 -11.53782551 80.36718528 -11.54284668 78.05078125 C-11.54874634 73.19520302 -11.54016338 68.33991904 -11.52148438 63.484375 C-11.49869496 57.25635354 -11.51181548 51.02902155 -11.53577423 44.80102539 C-11.55021932 40.01752515 -11.54563205 35.23418873 -11.53526306 30.45068359 C-11.53259223 28.15413329 -11.535878 25.85756817 -11.54518127 23.56103516 C-11.55532527 20.3527886 -11.53987483 17.14566294 -11.51757812 13.9375 C-11.52567505 12.98568848 -11.53377197 12.03387695 -11.54211426 11.05322266 C-11.45961644 4.65492797 -11.45961644 4.65492797 -9.18249512 1.41015625 C-5.94472033 -0.68183851 -3.77279544 -0.52951515 0 0 Z " fill="#F32054" transform="translate(96,200)"/>
<path d="M0 0 C0.99 0.03287109 0.99 0.03287109 2 0.06640625 C2.66 0.06511719 3.32 0.06382812 4 0.0625 C6.94958635 0.89783207 8.09813584 2.237147 10 4.62890625 C10.49879456 7.78276062 10.49879456 7.78276062 10.49829102 11.54956055 C10.50380981 12.2379451 10.50932861 12.92632965 10.51501465 13.63557434 C10.52432407 15.12730244 10.52444846 16.61911002 10.51642036 18.11084557 C10.50376808 20.47898688 10.5151018 22.84596611 10.53245544 25.21406555 C10.55916943 29.39459067 10.56475132 33.5748309 10.56335449 37.75543213 C10.56112802 44.42833921 10.57548684 51.10089081 10.61894035 57.77366066 C10.62871022 60.09406656 10.62009391 62.4139052 10.61024475 64.73429871 C10.57992528 77.00261144 10.57992528 77.00261144 15.7265625 87.93359375 C22.01500756 93.13514707 27.7553236 96.06254695 36.0625 95.56640625 C43.73928747 94.43571662 48.83869602 91.44880014 53.7734375 85.5078125 C56.79259234 80.88292881 57.24994716 76.91423858 57.25537109 71.43945312 C57.25899155 70.7347438 57.262612 70.03003448 57.26634216 69.30397034 C57.27321214 67.78058665 57.27574611 66.25717848 57.27439499 64.73377991 C57.27342668 62.32068331 57.28640671 59.90802838 57.30337524 57.49499512 C57.34956234 50.63683447 57.37425943 43.77872109 57.38085938 36.92041016 C57.38587622 32.71936165 57.41013015 28.51877752 57.44618607 24.31788635 C57.45597606 22.71996347 57.45832035 21.12197666 57.45301437 19.52403259 C57.44593678 17.2883034 57.46323642 15.05395783 57.48583984 12.81835938 C57.48868988 11.5477063 57.49153992 10.27705322 57.49447632 8.96789551 C58.08609347 5.06025797 59.22970124 3.39536741 62 0.62890625 C64 0 64 0 66 0.06640625 C66.66 0.06511719 67.32 0.06382812 68 0.0625 C70.96939454 0.90344181 72.09723288 2.2051615 74 4.62890625 C74.39515874 7.24925458 74.54796016 9.45064739 74.51757812 12.06860352 C74.5245874 12.81229691 74.53159668 13.5559903 74.53881836 14.32221985 C74.5564163 16.78029798 74.54476169 19.23722263 74.53125 21.6953125 C74.53394641 23.41202514 74.53783008 25.12873629 74.54284668 26.84544373 C74.54874581 30.44764717 74.54017307 34.04945402 74.52148438 37.65161133 C74.49881448 42.24236599 74.51173846 46.832179 74.53577423 51.42289829 C74.55032422 54.97227385 74.54558237 58.52143151 74.53526306 62.07081413 C74.53261481 63.76149548 74.53579776 65.45219731 74.54518127 67.14285469 C74.60388044 80.7042091 73.28704918 91.29886781 63.48828125 101.40234375 C53.79151747 110.07919674 43.2555116 113.24430915 30.390625 112.91015625 C19.51533182 112.0080582 10.1054064 107.2539486 2.625 99.31640625 C-3.7044348 91.74665796 -6.13898332 84.01121107 -6.17700195 74.27758789 C-6.18357315 73.54376389 -6.19014435 72.80993988 -6.19691467 72.05387878 C-6.2165812 69.63227223 -6.228293 67.21072738 -6.23828125 64.7890625 C-6.24235678 63.96049681 -6.2464323 63.13193111 -6.25063133 62.27825737 C-6.27145987 57.89587531 -6.28577763 53.51352431 -6.29516602 49.13110352 C-6.30624698 44.60712236 -6.34067513 40.08363081 -6.38033772 35.55982304 C-6.40647904 32.07766302 -6.41485543 28.59562041 -6.41844749 25.1133709 C-6.42331688 23.44560868 -6.43494095 21.77785184 -6.45348549 20.11018562 C-6.47783376 17.77626695 -6.47692091 15.44362593 -6.4699707 13.10961914 C-6.48278076 12.42322357 -6.49559082 11.736828 -6.50878906 11.02963257 C-6.45544041 6.10820965 -5.09665294 1.60265844 0 0 Z " fill="#F32054" transform="translate(200,199.37109375)"/>
<path d="M0 0 C2.70310964 1.97178747 4.66096223 3.54797734 5.44680214 6.91355324 C5.61627734 9.26409331 5.61847772 11.56495726 5.56762695 13.92114258 C5.56835709 14.80944763 5.56908722 15.69775269 5.56983948 16.61297607 C5.56636394 19.54078846 5.5275045 22.46699779 5.48828125 25.39453125 C5.47895301 27.42761872 5.47183695 29.46071745 5.46684265 31.49382019 C5.44777387 36.83868572 5.39867359 42.18286929 5.34332275 47.52746582 C5.292128 52.9837115 5.26932809 58.44006763 5.24414062 63.89648438 C5.19055515 74.59795548 5.10524337 85.29892098 5 96 C6.28632324 95.9685791 6.28632324 95.9685791 7.59863281 95.93652344 C10.78918472 95.86823473 13.97936346 95.81814487 17.17041016 95.78027344 C18.5497668 95.76019358 19.92903869 95.73292334 21.30810547 95.69824219 C23.29356979 95.64957183 25.27966254 95.62913582 27.265625 95.609375 C29.05661621 95.5779541 29.05661621 95.5779541 30.88378906 95.54589844 C34.60478556 96.08813077 35.74175602 97.05785414 38 100 C38.53125 102 38.53125 102 38.5 104 C38.5103125 104.66 38.520625 105.32 38.53125 106 C37.71757247 109.0632566 36.54541824 110.08995882 34 112 C30.93020039 112.60322294 27.90169398 112.56050553 24.78125 112.53125 C23.43891296 112.53699036 23.43891296 112.53699036 22.06945801 112.54284668 C20.17992018 112.5455652 18.29034468 112.53820816 16.40087891 112.52148438 C13.5098881 112.50007323 10.62138233 112.52128734 7.73046875 112.546875 C5.89322369 112.54423171 4.05598017 112.53910671 2.21875 112.53125 C1.35511841 112.53934692 0.49148682 112.54744385 -0.39831543 112.55578613 C-6.39110785 112.46222815 -6.39110785 112.46222815 -9.51367188 110.09179688 C-11.59858445 107.15757694 -12.1259748 105.54266874 -12.14044189 101.99674988 C-12.14615204 101.15981094 -12.15186218 100.32287201 -12.15774536 99.46057129 C-12.15886322 98.54054321 -12.15998108 97.62051514 -12.16113281 96.67260742 C-12.16609772 95.70498978 -12.17106262 94.73737213 -12.17617798 93.74043274 C-12.1908225 90.52877093 -12.19760563 87.31715851 -12.203125 84.10546875 C-12.20887483 81.87828062 -12.21463258 79.65109251 -12.22039795 77.42390442 C-12.23091464 72.74899057 -12.23675285 68.07409395 -12.24023438 63.39916992 C-12.24571869 57.4067389 -12.26974274 51.41453515 -12.29820633 45.42217541 C-12.31682427 40.81968011 -12.32203788 36.21723963 -12.32357025 31.61470985 C-12.32659951 29.40549795 -12.33463718 27.19628708 -12.34775543 24.98711205 C-12.36479706 21.896424 -12.36294006 18.80629205 -12.35644531 15.71557617 C-12.3656601 14.80162079 -12.37487488 13.88766541 -12.3843689 12.9460144 C-12.35281919 8.15676389 -12.16757872 4.86435798 -9 1 C-5.86128812 -0.56935594 -3.46144178 -0.35201103 0 0 Z " fill="#F22054" transform="translate(389,200)"/>
<path d="M0 0 C2.36497439 1.86708505 3.66030715 3.32061431 5 6 C5.09331014 8.83780737 5.12575361 11.65089774 5.11352539 14.48876953 C5.11367142 15.36688293 5.11381744 16.24499634 5.1139679 17.14971924 C5.11326958 20.0607752 5.10548095 22.97176768 5.09765625 25.8828125 C5.09579178 27.89777593 5.09436802 29.91273981 5.09336853 31.92770386 C5.08954562 37.2377853 5.07971724 42.5478395 5.06866455 47.85791016 C5.05844559 53.27375927 5.05386987 58.68961278 5.04882812 64.10546875 C5.03809479 74.73699115 5.02102106 85.36849331 5 96 C6.28632324 95.9685791 6.28632324 95.9685791 7.59863281 95.93652344 C10.78918472 95.86823473 13.97936346 95.81814487 17.17041016 95.78027344 C18.5497668 95.76019358 19.92903869 95.73292334 21.30810547 95.69824219 C23.29356979 95.64957183 25.27966254 95.62913582 27.265625 95.609375 C29.05661621 95.5779541 29.05661621 95.5779541 30.88378906 95.54589844 C34.60478556 96.08813077 35.74175602 97.05785414 38 100 C38.53125 102 38.53125 102 38.5 104 C38.5103125 104.66 38.520625 105.32 38.53125 106 C37.71740047 109.0639041 36.5469712 110.09099423 34 112 C30.92881563 112.5925091 27.90082108 112.53667262 24.78125 112.49609375 C23.88635864 112.49754898 22.99146729 112.49900421 22.06945801 112.50050354 C20.17989848 112.49884563 18.2903253 112.48729644 16.40087891 112.46655273 C13.51015814 112.43760174 10.62127209 112.44594501 7.73046875 112.45898438 C5.89322026 112.45274661 4.05597756 112.44435536 2.21875 112.43359375 C0.92330261 112.43799721 0.92330261 112.43799721 -0.39831543 112.44248962 C-3.94110739 112.38684911 -6.35228973 112.34518126 -9.51367188 110.66040039 C-11.94460828 107.94476332 -12.1261971 105.36351353 -12.14044189 101.87649536 C-12.14615204 101.03818176 -12.15186218 100.19986816 -12.15774536 99.33615112 C-12.15886322 98.41971832 -12.15998108 97.50328552 -12.16113281 96.55908203 C-12.16609772 95.59131836 -12.17106262 94.62355469 -12.17617798 93.62646484 C-12.19080089 90.4202402 -12.19760152 87.21406503 -12.203125 84.0078125 C-12.20887595 81.78205361 -12.21463369 79.55629474 -12.22039795 77.33053589 C-12.23090803 72.6615984 -12.23675079 67.99267813 -12.24023438 63.32373047 C-12.24572181 57.33917522 -12.26975528 51.35484718 -12.29820633 45.37036324 C-12.31682263 40.77215915 -12.32203776 36.17400993 -12.32357025 31.57577133 C-12.32659913 29.3693505 -12.33463553 27.16293069 -12.34775543 24.95654678 C-12.36479602 21.87075716 -12.36294049 18.78552452 -12.35644531 15.69970703 C-12.3656601 14.78732269 -12.37487488 13.87493835 -12.3843689 12.93490601 C-12.352787 8.14896332 -12.16423269 4.86223406 -9 1 C-5.90826248 -0.54586876 -3.40570448 -0.29359521 0 0 Z " fill="#F32055" transform="translate(312,200)"/>
<path d="M0 0 C4.01533688 3.55563709 6.52075456 7.76088923 9.25 12.3125 C9.73380127 13.11502197 10.21760254 13.91754395 10.71606445 14.74438477 C35.45834786 56.10981407 48.67262795 102.6546191 47 151 C46.67 151 46.34 151 46 151 C45.93530518 150.10619629 45.87061035 149.21239258 45.80395508 148.29150391 C42.17610023 99.63153842 31.71245675 50.45836331 -0.63574219 12.05932617 C-2.94838801 8.56842289 -2.64178592 6.06464413 -2 2 C-1.34 1.34 -0.68 0.68 0 0 Z " fill="#FE3F54" transform="translate(434,109)"/>
</svg>
