<?xml version="1.0" encoding="UTF-8"?>
<svg version="1.1" xmlns="http://www.w3.org/2000/svg" width="1200" height="1445">
<path d="M0 0 C0.82426483 0.00060425 1.64852966 0.0012085 2.49777222 0.00183105 C99.33748374 0.19286168 197.31686656 32.12499427 273.75 92.1875 C274.84707418 93.03070577 275.9447655 93.87310902 277.04296875 94.71484375 C283.40536599 99.61946974 289.60586175 104.68845343 295.6875 109.9375 C296.28989502 110.45602539 296.89229004 110.97455078 297.51293945 111.50878906 C301.22388336 114.74373394 304.73108866 118.12732317 308.18969727 121.62988281 C309.97093016 123.4080499 311.82768628 125.06347634 313.75 126.6875 C319.54708606 131.70270548 324.75541373 137.10171999 329.75 142.91015625 C331.66030868 145.08537102 333.6239437 147.20266764 335.6027832 149.31542969 C341.60760322 155.74939026 347.08549594 162.49507051 352.43554688 169.47900391 C353.66915389 171.08241807 354.91994228 172.6725719 356.171875 174.26171875 C419.54637541 255.13669395 447.47561121 350.21212403 442.7890625 475.72265625 C435.07193104 532.98745383 418.76763426 587.47109483 388.37890625 637 C387.93562988 637.72445312 387.49235352 638.44890625 387.03564453 639.1953125 C385.75 641.1875 385.75 641.1875 384.44482422 642.8671875 C383.10245538 644.51746025 383.10245538 644.51746025 381.75 647.1875 C382.05415433 650.06114311 382.05415433 650.06114311 383.75 653.1875 C384.12769531 653.97833984 384.50539063 654.76917969 384.89453125 655.58398438 C385.81350923 657.48835616 386.74438607 659.38701378 387.68457031 661.28100586 C411.73604699 709.77781527 426.60346532 765.1978527 426.98828125 819.5625 C426.9980751 820.71344147 427.00786896 821.86438293 427.01795959 823.05020142 C427.19328046 849.01798182 426.93580138 874.52434383 422.75 900.1875 C422.64345093 900.85106506 422.53690186 901.51463013 422.42712402 902.19830322 C410.90490681 973.44006458 380.33017125 1039.88759483 332.75 1094.1875 C332.12029297 1094.90623291 331.49058594 1095.62496582 330.84179688 1096.36547852 C325.10062485 1102.8333894 319.10778094 1109.01594586 312.99414062 1115.12866211 C311.3785932 1116.74640192 309.77124966 1118.37200636 308.1640625 1119.99804688 C301.68134108 1126.51562497 294.95703275 1132.46537324 287.75 1138.1875 C286.53651261 1139.21137036 285.32752433 1140.2406194 284.125 1141.27734375 C266.08042249 1156.61230963 245.40731191 1168.89970062 225.41943359 1181.50195312 C220.85473831 1184.38421545 216.30316272 1187.28706811 211.75 1190.1875 C209.91672696 1191.3542614 208.08339368 1192.52092816 206.25 1193.6875 C205.3425 1194.265 204.435 1194.8425 203.5 1195.4375 C78.375 1275.0625 78.375 1275.0625 -46.75 1354.6875 C-47.6572583 1355.26491943 -48.5645166 1355.84233887 -49.49926758 1356.43725586 C-51.33477438 1357.60515754 -53.1705497 1358.7726373 -55.0065918 1359.93969727 C-59.55895466 1362.83408836 -64.10658827 1365.73538856 -68.64453125 1368.65234375 C-97.78209522 1387.35449618 -127.01188474 1404.37869679 -159.25 1417.1875 C-160.18134766 1417.55858887 -161.11269531 1417.92967773 -162.07226562 1418.31201172 C-177.78118242 1424.48906765 -193.9180212 1428.97827576 -210.25 1433.1875 C-211.1977832 1433.43628906 -212.14556641 1433.68507813 -213.12207031 1433.94140625 C-299.09708466 1456.23948333 -394.2497463 1446.62996065 -539.25 1384.1875 C-555.85066445 1374.30592508 -572.03937304 1363.49361015 -587.2265625 1351.546875 C-589.36927593 1349.87478338 -591.51769354 1348.24305087 -593.7109375 1346.640625 C-594.27304932 1346.22844727 -594.83516113 1345.81626953 -595.41430664 1345.39160156 C-596.96729152 1344.25705536 -598.52452712 1343.12833417 -600.08203125 1342 C-600.79746094 1341.401875 -601.51289062 1340.80375 -602.25 1340.1875 C-602.25 1339.5275 -602.25 1338.8675 -602.25 1338.1875 C-602.84296875 1337.91671631 -603.4359375 1337.64593262 -604.046875 1337.36694336 C-606.22315948 1336.20186908 -607.72016557 1335.01227094 -609.5 1333.31640625 C-610.10263672 1332.74744629 -610.70527344 1332.17848633 -611.32617188 1331.59228516 C-611.96103516 1330.98433105 -612.59589844 1330.37637695 -613.25 1329.75 C-614.59317615 1328.4772587 -615.93693367 1327.20513069 -617.28125 1325.93359375 C-617.94898438 1325.30050293 -618.61671875 1324.66741211 -619.3046875 1324.01513672 C-621.5866337 1321.87122994 -623.90610149 1319.77256931 -626.23364258 1317.6784668 C-630.68663923 1313.66711335 -634.83370148 1309.59594643 -638.68359375 1305.00390625 C-640.24941916 1303.18817355 -641.8990212 1301.53807296 -643.625 1299.875 C-647.33488557 1296.22282376 -650.55490824 1292.23907538 -653.8125 1288.18359375 C-655.87766652 1285.64515991 -657.99324184 1283.16432883 -660.14086914 1280.69580078 C-677.59859143 1260.51922719 -692.42245598 1237.5331728 -705.25 1214.1875 C-705.72646973 1213.32495605 -706.20293945 1212.46241211 -706.69384766 1211.57373047 C-727.88793934 1172.92157315 -742.04138202 1131.37352972 -750 1088.0625 C-750.18675293 1087.05276123 -750.37350586 1086.04302246 -750.56591797 1085.00268555 C-751.18937636 1081.4056163 -751.73507383 1077.80131213 -752.25 1074.1875 C-752.37601593 1073.32218658 -752.50203186 1072.45687317 -752.63186646 1071.56533813 C-755.17446751 1053.62687547 -755.77888387 1035.85636616 -755.69683075 1017.77695084 C-755.68734867 1015.59009797 -755.68251054 1013.40326897 -755.67828369 1011.21640015 C-755.62367703 990.28834221 -755.0244245 969.83414406 -751.25 949.1875 C-750.91395198 947.21189268 -750.57791908 945.23628268 -750.24264526 943.26054382 C-741.57756715 892.72894094 -722.78209707 845.45682381 -695.45825195 802.14501953 C-694.22571501 800.21328871 -694.22571501 800.21328871 -693.25 798.1875 C-694.26748263 795.61288737 -694.26748263 795.61288737 -695.828125 792.66796875 C-696.4068335 791.51506348 -696.98554199 790.3621582 -697.58178711 789.17431641 C-697.89453583 788.55631165 -698.20728455 787.93830688 -698.5295105 787.30157471 C-721.1922432 742.31247638 -734.54960315 692.40875426 -738.25 642.1875 C-738.33459473 641.12474854 -738.33459473 641.12474854 -738.42089844 640.04052734 C-745.72625951 546.0866676 -719.14562424 449.49159998 -662.25 374.1875 C-661.77852539 373.56294922 -661.30705078 372.93839844 -660.82128906 372.29492188 C-655.6008398 365.42571468 -650.13199961 358.78529069 -644.5 352.25 C-643.98115234 351.64712158 -643.46230469 351.04424316 -642.92773438 350.4230957 C-639.70909573 346.73157893 -636.35481223 343.23178922 -632.84838867 339.81225586 C-631.23570779 338.17297203 -629.76881666 336.46610119 -628.3125 334.6875 C-625.56136223 331.40954862 -622.49944452 328.69528308 -619.2421875 325.9296875 C-617.37494265 324.29676357 -615.65737604 322.59820861 -613.9375 320.8125 C-609.86054964 316.68057953 -605.38469605 313.09183855 -600.85253906 309.47363281 C-599.16069809 308.11582991 -597.48223176 306.74260594 -595.8046875 305.3671875 C-581.55377877 293.73892177 -566.50927607 283.5854603 -550.91503906 273.859375 C-545.96323962 270.75293284 -541.04585737 267.59263796 -536.125 264.4375 C-535.07119141 263.76235352 -534.01738281 263.08720703 -532.93164062 262.39160156 C-530.77819804 261.01190957 -528.62487843 259.63202564 -526.47167969 258.25195312 C-521.23263306 254.89477078 -515.99121962 251.54128842 -510.75 248.1875 C-508.66665484 246.85418515 -506.58332152 245.5208518 -504.5 244.1875 C-425.33333333 193.52083333 -346.16666667 142.85416667 -267 92.1875 C-265.96834717 91.52717773 -264.93669434 90.86685547 -263.8737793 90.18652344 C-261.7947515 88.85607564 -259.7154879 87.52599622 -257.63598633 86.19628906 C-252.35976325 82.82182097 -247.0880575 79.44063427 -241.82421875 76.046875 C-178.52685728 35.27368515 -110.08619093 6.52988611 -34.25 1.1875 C-33.11916992 1.10282471 -31.98833984 1.01814941 -30.82324219 0.9309082 C-20.54236086 0.21572199 -10.30418932 -0.01412267 0 0 Z " fill="#FF3E00" transform="translate(755.25,-0.1875)"/>
<path d="M0 0 C2.68538534 -0.00217577 5.37035158 -0.02035786 8.05566406 -0.03930664 C19.05488894 -0.0757562 29.70422667 0.60207511 40.58691406 2.18530273 C41.69099609 2.34200439 42.79507813 2.49870605 43.93261719 2.66015625 C55.71992328 4.40520959 67.24686618 6.46398267 78.58691406 10.18530273 C80.3653297 10.73422616 82.14399896 11.28232826 83.92285156 11.82983398 C121.34745551 23.58092522 155.31062987 42.85712264 183.92285156 69.70874023 C186.09852343 71.73128564 188.3085588 73.65698537 190.58691406 75.56030273 C235.64051399 114.83062482 264.70028643 178.17318805 269.4430542 237.03466797 C271.54352171 268.43563239 268.60771132 298.02233115 259.58691406 328.18530273 C259.33586914 329.02722168 259.08482422 329.86914062 258.82617188 330.73657227 C257.47168944 335.23923458 256.05450943 339.71800696 254.58691406 344.18530273 C254.2659375 345.16370117 253.94496094 346.14209961 253.61425781 347.15014648 C252.94688825 349.16467136 252.26876612 351.17563351 251.58691406 353.18530273 C246.09335865 350.19276071 241.11566142 346.77262122 236.08691406 343.06030273 C221.72675061 332.59563761 206.92781721 323.15167535 191.58691406 314.18530273 C190.85134277 313.75217773 190.11577148 313.31905273 189.35791016 312.87280273 C166.9160563 299.72909514 142.98553582 290.01860987 118.58691406 281.18530273 C117.5661377 280.81469727 116.54536133 280.4440918 115.49365234 280.06225586 C112.7569933 279.07346803 110.01728804 278.09420467 107.27441406 277.12280273 C106.4992041 276.84782959 105.72399414 276.57285645 104.92529297 276.28955078 C100.19403785 274.64688503 95.4616263 273.33650596 90.58691406 272.18530273 C90.60786133 271.42088867 90.62880859 270.65647461 90.65039062 269.86889648 C91.27257004 248.66739264 91.27257004 248.66739264 86.58691406 228.18530273 C86.15121094 226.9697168 85.71550781 225.75413086 85.26660156 224.50170898 C82.10912912 216.48725025 77.95927173 209.88667131 72.58691406 203.18530273 C71.80316406 202.13342773 71.01941406 201.08155273 70.21191406 199.99780273 C58.06391755 186.98209219 39.63657935 177.19175627 21.70288086 175.99243164 C0.61111692 175.41713126 0.61111692 175.41713126 -19.41308594 181.18530273 C-20.41210938 181.60811523 -21.41113281 182.03092773 -22.44042969 182.46655273 C-30.01647988 185.96475578 -36.90571039 190.60969661 -43.85449219 195.19311523 C-48.49978221 198.25649568 -53.20095224 201.22613073 -57.91308594 204.18530273 C-63.940055 207.97800526 -69.94200066 211.80521549 -75.91308594 215.68530273 C-81.88418256 219.56539736 -87.88658022 223.39185166 -93.91308594 227.18530273 C-99.87572593 230.93908981 -105.8166659 234.72249257 -111.72558594 238.56030273 C-120.97632493 244.56734683 -130.28512766 250.48201937 -139.59570312 256.39575195 C-153.11146321 264.98071915 -166.61264091 273.58802453 -180.09594727 282.22387695 C-187.75644367 287.12891404 -195.42801048 292.01627073 -203.10449219 296.89624023 C-211.1066552 301.98538563 -219.09364066 307.09807788 -227.07910156 312.21337891 C-234.0152313 316.65502064 -240.96115702 321.08093906 -247.91308594 325.49780273 C-254.26401507 329.53357047 -260.60139953 333.58842804 -266.91308594 337.68530273 C-274.14519183 342.37961574 -281.41397058 347.01465283 -288.69165039 351.63793945 C-295.83838501 356.17920274 -302.97146773 360.74144325 -310.10058594 365.31030273 C-317.52179624 370.06565241 -324.95461983 374.80110184 -332.41308594 379.49780273 C-340.49258197 384.58812478 -348.52984946 389.73998592 -356.52636719 394.9597168 C-358.27384914 396.09485647 -360.0293429 397.21616187 -361.78808594 398.33374023 C-379.64459317 409.85847577 -391.14459337 424.15870879 -396.22558594 444.99780273 C-400.11069131 465.15594949 -395.2290684 484.93481218 -384.41308594 502.18530273 C-374.06194332 517.02045325 -359.65160297 527.65294145 -342.41308594 533.18530273 C-341.48882812 533.48307617 -340.56457031 533.78084961 -339.61230469 534.08764648 C-325.69235964 537.9258016 -310.13657345 537.5970251 -296.41308594 533.18530273 C-295.1871875 532.80631836 -293.96128906 532.42733398 -292.69824219 532.03686523 C-281.61230336 528.3746323 -272.1524202 522.52091018 -262.41308594 516.18530273 C-261.03194196 515.29671208 -259.65044006 514.40867747 -258.26855469 513.52124023 C-255.48711648 511.72995158 -252.71217005 509.92905565 -249.94042969 508.12280273 C-244.89102467 504.83783639 -239.80967201 501.60374814 -234.72558594 498.37280273 C-233.79689697 497.78249268 -232.86820801 497.19218262 -231.91137695 496.58398438 C-230.01786643 495.38074317 -228.12422981 494.17770038 -226.23046875 492.97485352 C-213.7782434 485.06542441 -201.33591088 477.14083933 -188.91308594 469.18530273 C-185.76723782 467.17156228 -182.62124252 465.1580522 -179.47509766 463.14477539 C-177.46874834 461.8608526 -175.46255757 460.57668201 -173.45654297 459.29223633 C-148.59228399 443.37995272 -148.59228399 443.37995272 -136.41308594 436.18530273 C-135.81077148 435.82774902 -135.20845703 435.47019531 -134.58789062 435.10180664 C-122.50786949 428.02752454 -109.46573343 423.14959581 -96.41308594 418.18530273 C-95.71248047 417.91057129 -95.011875 417.63583984 -94.29003906 417.3527832 C-85.44055361 413.89610308 -76.31236228 411.95662441 -67.03808594 409.99780273 C-65.85569336 409.74740234 -64.67330078 409.49700195 -63.45507812 409.23901367 C-47.64760926 406.03941918 -32.20630738 404.80374441 -16.10058594 404.87280273 C-15.23512146 404.87429321 -14.36965698 404.87578369 -13.47796631 404.87731934 C8.1907964 404.94396644 29.58089909 406.57914089 50.58691406 412.18530273 C51.84604614 412.51691406 51.84604614 412.51691406 53.13061523 412.85522461 C95.73654851 424.25005433 134.60993005 444.38520582 166.83691406 474.62280273 C169.313707 476.93072342 171.83920148 479.15856482 174.39941406 481.37280273 C177.82573027 484.40543091 180.85520117 487.59852046 183.80175781 491.09545898 C185.0090649 492.50882723 186.25299277 493.8915874 187.52832031 495.24389648 C216.27008321 525.78532778 236.42308801 565.18985188 246.01416016 605.78393555 C246.48678093 607.76547772 246.99501322 609.73849024 247.51269531 611.70874023 C248.31805765 614.85584843 248.98232921 617.99323864 249.58691406 621.18530273 C249.72226562 621.89799316 249.85761719 622.61068359 249.99707031 623.3449707 C255.86052224 655.7854429 254.81987898 692.52436939 245.58691406 724.18530273 C245.30203125 725.28745117 245.01714844 726.38959961 244.72363281 727.52514648 C231.8348367 776.18461023 201.21897932 821.41029379 160.58691406 851.18530273 C160.03890137 851.59409668 159.49088867 852.00289062 158.92626953 852.42407227 C149.67178586 859.32058664 139.97273833 865.45398207 130.18457031 871.55834961 C125.63527051 874.40764791 121.11253253 877.29859788 116.58691406 880.18530273 C109.76259229 884.53301782 102.93097787 888.86873273 96.08691406 893.18530273 C86.50257259 899.23104288 76.94280756 905.31510236 67.38525391 911.40307617 C62.78667643 914.33185087 58.18671691 917.25845309 53.58691406 920.18530273 C52.67748047 920.7640918 51.76804687 921.34288086 50.83105469 921.93920898 C46.28547178 924.83214552 41.73942196 927.72434305 37.19238281 930.61499023 C27.48082937 936.78996641 17.77826776 942.97866484 8.08691406 949.18530273 C-2.49571102 955.96273795 -13.09291758 962.71689382 -23.69824219 969.45874023 C-26.46853543 971.22056702 -29.23782819 972.98395635 -32.00683594 974.74780273 C-40.56958025 980.20157086 -49.13699757 985.64731147 -57.72558594 991.06030273 C-66.15205442 996.37268045 -74.54289032 1001.73993478 -82.93041992 1007.11352539 C-97.33765479 1016.34286803 -111.77358465 1025.5262793 -126.24414062 1034.65600586 C-139.15900127 1042.80767258 -152.03681108 1051.0176338 -164.89550781 1059.25756836 C-168.0781318 1061.29592169 -171.26311916 1063.3305448 -174.44824219 1065.36499023 C-178.11335881 1067.70725709 -181.76758017 1070.06447693 -185.40917969 1072.44311523 C-212.44147088 1089.99929809 -244.92524044 1106.86455893 -277.36621094 1110.89624023 C-279.4739446 1111.08333686 -279.4739446 1111.08333686 -281.41308594 1112.18530273 C-283.67742009 1112.56025069 -285.95010384 1112.88534217 -288.22558594 1113.18530273 C-290.06056641 1113.43280273 -290.06056641 1113.43280273 -291.93261719 1113.68530273 C-346.42954039 1120.0699851 -399.15238426 1111.33215858 -448.41308594 1087.18530273 C-449.12754883 1086.84031738 -449.84201172 1086.49533203 -450.578125 1086.13989258 C-470.68688375 1076.34916814 -489.56853207 1062.68500785 -505.92089844 1047.49389648 C-508.11017758 1045.46589653 -510.33608589 1043.50319091 -512.60058594 1041.56030273 C-519.45745415 1035.56751141 -525.4436733 1029.12272277 -531.13964844 1022.01733398 C-532.59327145 1020.20654931 -534.06563432 1018.41054984 -535.56152344 1016.63452148 C-580.03117676 963.73650427 -598.16959777 897.23622782 -592.95214844 828.98608398 C-591.65398618 815.68299216 -588.68318914 802.86871464 -585.16625977 789.99438477 C-584.35933345 786.98482424 -583.60724853 783.96467486 -582.86230469 780.93920898 C-581.77428982 776.55485683 -580.58349918 772.24316542 -579.22558594 767.93530273 C-578.70931641 766.28788086 -578.70931641 766.28788086 -578.18261719 764.60717773 C-577.80169922 763.40834961 -577.80169922 763.40834961 -577.41308594 762.18530273 C-573.34721759 764.00262268 -569.8014961 766.58780528 -566.16308594 769.12280273 C-565.45563232 769.61151855 -564.74817871 770.10023438 -564.01928711 770.60375977 C-560.5179602 773.0233097 -557.02581265 775.45547021 -553.54199219 777.90014648 C-512.80269117 806.3810023 -467.40799811 829.05533365 -419.38574219 842.31420898 C-416.41308594 843.18530273 -416.41308594 843.18530273 -415.41308594 844.18530273 C-415.36202221 845.92544104 -415.37778575 847.66760554 -415.42089844 849.40795898 C-415.86127059 874.08159041 -413.16260851 896.44562084 -395.41308594 915.18530273 C-394.85105469 915.81307617 -394.28902344 916.44084961 -393.70996094 917.08764648 C-379.83080838 931.90720891 -359.05838149 940.8811099 -338.88330078 941.6027832 C-317.36101907 941.80246946 -299.59653673 933.57288949 -282.09423828 921.95385742 C-277.19622465 918.72300596 -272.23585508 915.58917975 -267.28808594 912.43530273 C-265.1535583 911.06876021 -263.01944744 909.70156647 -260.88574219 908.33374023 C-245.84175844 898.69161523 -230.79346618 889.05659931 -215.71435547 879.46948242 C-204.59819235 872.39937114 -193.50660579 865.29086709 -182.41308594 858.18530273 C-169.52643318 849.9312101 -156.63570186 841.68394585 -143.72094727 833.47387695 C-136.77655201 829.05749894 -129.84323367 824.62399858 -122.91308594 820.18530273 C-115.08748298 815.17307605 -107.25566452 810.17092674 -99.41308594 805.18530273 C-87.3961024 797.54515014 -75.40428238 789.86584229 -63.41308594 782.18530273 C-50.52643318 773.9312101 -37.63570186 765.68394585 -24.72094727 757.47387695 C-16.72037732 752.38581097 -8.73459845 747.27479392 -0.75146484 742.15942383 C5.29196844 738.28850951 11.34437639 734.43229933 17.40625 730.59033203 C21.8062855 727.79876757 26.1976806 724.99381064 30.58691406 722.18530273 C31.3271582 721.71366699 32.06740234 721.24203125 32.83007812 720.75610352 C52.46105278 708.20373644 66.03774065 693.55890147 71.22363281 670.33374023 C73.71206861 648.76729665 70.21874489 628.33482107 56.71191406 610.87280273 C55.35845324 609.29160855 53.98345888 607.72857647 52.58691406 606.18530273 C51.91015625 605.41573242 51.23339844 604.64616211 50.53613281 603.85327148 C36.43896106 588.72522794 16.00265935 581.3208782 -4.25292969 579.91967773 C-26.51922892 579.30664295 -44.97678274 588.43998184 -63.05712891 600.61694336 C-67.35965292 603.48113136 -71.73419947 606.23238625 -76.10058594 608.99780273 C-77.98352205 610.19422279 -79.86633364 611.39083885 -81.74902344 612.58764648 C-83.15812988 613.48265869 -83.15812988 613.48265869 -84.59570312 614.39575195 C-97.04792704 622.30518014 -109.49045198 630.22946983 -121.91308594 638.18530273 C-130.69910433 643.81213634 -139.49108012 649.42937299 -148.29785156 655.02368164 C-152.9329045 657.9681352 -157.56242881 660.92069281 -162.18261719 663.88842773 C-172.11497453 670.26035096 -182.02229558 676.57893769 -192.41308594 682.18530273 C-192.98526855 682.50128418 -193.55745117 682.81726563 -194.14697266 683.14282227 C-211.93812847 692.90301256 -231.70786709 699.49192538 -251.41308594 704.18530273 C-252.18362305 704.36931641 -252.95416016 704.55333008 -253.74804688 704.74291992 C-286.80168686 712.42638269 -324.02912446 713.31024995 -357.41308594 707.18530273 C-359.04969106 706.91508242 -360.68640986 706.64554965 -362.32324219 706.37670898 C-384.70229065 702.49419704 -405.91567575 694.81968195 -426.41308594 685.18530273 C-427.1573584 684.83999512 -427.90163086 684.4946875 -428.66845703 684.13891602 C-445.87779441 676.10042292 -461.47512796 665.86485146 -476.41308594 654.18530273 C-477.32445312 653.48791992 -478.23582031 652.79053711 -479.17480469 652.07202148 C-486.30039782 646.52989349 -492.88406788 640.40874117 -499.41308594 634.18530273 C-500.15872803 633.47470703 -500.15872803 633.47470703 -500.91943359 632.74975586 C-507.64253155 626.29594389 -513.67874607 619.52378269 -519.41308594 612.18530273 C-520.41043366 610.94047252 -521.40783271 609.69568342 -522.40527344 608.45092773 C-531.01304644 597.58235578 -538.39944031 586.13538187 -545.41308594 574.18530273 C-545.80334961 573.52884766 -546.19361328 572.87239258 -546.59570312 572.19604492 C-556.92900346 554.64372002 -564.97175107 533.94853773 -569.91308594 514.18530273 C-570.12030273 513.35716064 -570.32751953 512.52901855 -570.54101562 511.67578125 C-580.90894648 468.19953829 -580.49653039 421.78316095 -566.41308594 379.18530273 C-566.15833496 378.39913574 -565.90358398 377.61296875 -565.64111328 376.80297852 C-559.16243534 357.13948015 -550.05506491 338.30258469 -538.41308594 321.18530273 C-538.0126709 320.58959473 -537.61225586 319.99388672 -537.19970703 319.38012695 C-513.43503811 284.2451694 -481.48877328 261.17781089 -446.15917969 238.82592773 C-439.99893 234.92851825 -433.86216167 230.99484285 -427.72558594 227.06030273 C-419.71827919 221.92982155 -411.69464536 216.82697478 -403.64794922 211.75854492 C-396.03790713 206.95982521 -388.46356324 202.10576513 -380.88842773 197.25219727 C-371.30989442 191.11580101 -361.7146651 185.00594399 -352.11474609 178.90307617 C-347.54662536 175.99856709 -342.97993517 173.09181045 -338.41308594 170.18530273 C-336.5797593 169.01862554 -334.74642597 167.85195887 -332.91308594 166.68530273 C-332.00558594 166.10780273 -331.09808594 165.53030273 -330.16308594 164.93530273 C-276.0797526 130.51863607 -221.99641927 96.1019694 -167.91308594 61.68530273 C-167.00510254 61.1073999 -166.09711914 60.52949707 -165.16162109 59.93408203 C-163.33351915 58.77093634 -161.50507009 57.60833602 -159.67626953 56.44628906 C-155.00985697 53.48019382 -150.35039437 50.50401882 -145.70214844 47.50952148 C-113.07289923 26.52337005 -79.04465243 9.32959413 -40.35058594 3.06030273 C-39.35220703 2.89143555 -38.35382812 2.72256836 -37.32519531 2.54858398 C-24.84154282 0.49092809 -12.62861971 -0.001141 0 0 Z " fill="#FFFEFE" transform="translate(761.4130859375,164.814697265625)"/>
</svg>
